<?xml version="1.0" encoding="UTF-8" standalone="no"?><svg xmlns="http://www.w3.org/2000/svg" xmlns:xlink="http://www.w3.org/1999/xlink" clip-rule="evenodd" stroke-miterlimit="4.00" viewBox="0 0 487 30"><desc>SVG generated by Keynote</desc><defs></defs><g transform="matrix(1.00, 0.00, -0.00, -1.00, 0.0, 30.0)"><text xml:space="preserve" font-family="EurekaSans-RegularItalic" font-style="italic" font-size="28.0" fill="#000000" transform="matrix(1.00, 0.00, -0.00, -1.00, 1.0, 10.0)">s</text><text xml:space="preserve" font-family="EurekaSans-RegularItalic" font-style="italic" font-size="28.0" fill="#000000" transform="matrix(1.00, 0.00, -0.00, -1.00, 9.6, 10.0)">h</text><text xml:space="preserve" font-family="EurekaSans-RegularItalic" font-style="italic" font-size="28.0" fill="#000000" transform="matrix(1.00, 0.00, -0.00, -1.00, 21.3, 10.0)">i</text><text xml:space="preserve" font-family="EurekaSans-RegularItalic" font-style="italic" font-size="28.0" fill="#000000" transform="matrix(1.00, 0.00, -0.00, -1.00, 27.3, 10.0)">s</text><text xml:space="preserve" font-family="EurekaSans-RegularItalic" font-style="italic" font-size="28.0" fill="#000000" transform="matrix(1.00, 0.00, -0.00, -1.00, 35.9, 10.0)">o</text><text xml:space="preserve" font-family="EurekaSans-RegularItalic" font-style="italic" font-size="28.0" fill="#000000" transform="matrix(1.00, 0.00, -0.00, -1.00, 47.0, 10.0)">.</text><text xml:space="preserve" font-family="EurekaSans-RegularItalic" font-style="italic" font-size="28.0" fill="#000000" transform="matrix(1.00, 0.00, -0.00, -1.00, 53.8, 10.0)"> </text><text xml:space="preserve" font-family="EurekaSans-RegularItalic" font-style="italic" font-size="28.0" fill="#000000" transform="matrix(1.00, 0.00, -0.00, -1.00, 59.8, 10.0)">P</text><text xml:space="preserve" font-family="EurekaSans-RegularItalic" font-style="italic" font-size="28.0" fill="#000000" transform="matrix(1.00, 0.00, -0.00, -1.00, 70.4, 10.0)">u</text><text xml:space="preserve" font-family="EurekaSans-RegularItalic" font-style="italic" font-size="28.0" fill="#000000" transform="matrix(1.00, 0.00, -0.00, -1.00, 82.0, 10.0)">m</text><text xml:space="preserve" font-family="EurekaSans-RegularItalic" font-style="italic" font-size="28.0" fill="#000000" transform="matrix(1.00, 0.00, -0.00, -1.00, 98.5, 10.0)">p</text><text xml:space="preserve" font-family="EurekaSans-RegularItalic" font-style="italic" font-size="28.0" fill="#000000" transform="matrix(1.00, 0.00, -0.00, -1.00, 109.9, 10.0)">e</text><text xml:space="preserve" font-family="EurekaSans-RegularItalic" font-style="italic" font-size="28.0" fill="#000000" transform="matrix(1.00, 0.00, -0.00, -1.00, 119.3, 10.0)">r</text><text xml:space="preserve" font-family="EurekaSans-RegularItalic" font-style="italic" font-size="28.0" fill="#000000" transform="matrix(1.00, 0.00, -0.00, -1.00, 127.1, 10.0)">n</text><text xml:space="preserve" font-family="EurekaSans-RegularItalic" font-style="italic" font-size="28.0" fill="#000000" transform="matrix(1.00, 0.00, -0.00, -1.00, 138.7, 10.0)">i</text><text xml:space="preserve" font-family="EurekaSans-RegularItalic" font-style="italic" font-size="28.0" fill="#000000" transform="matrix(1.00, 0.00, -0.00, -1.00, 144.8, 10.0)">c</text><text xml:space="preserve" font-family="EurekaSans-RegularItalic" font-style="italic" font-size="28.0" fill="#000000" transform="matrix(1.00, 0.00, -0.00, -1.00, 153.8, 10.0)">k</text><text xml:space="preserve" font-family="EurekaSans-RegularItalic" font-style="italic" font-size="28.0" fill="#000000" transform="matrix(1.00, 0.00, -0.00, -1.00, 164.3, 10.0)">e</text><text xml:space="preserve" font-family="EurekaSans-RegularItalic" font-style="italic" font-size="28.0" fill="#000000" transform="matrix(1.00, 0.00, -0.00, -1.00, 173.7, 10.0)">l</text><text xml:space="preserve" font-family="EurekaSans-RegularItalic" font-style="italic" font-size="28.0" fill="#000000" transform="matrix(1.00, 0.00, -0.00, -1.00, 179.7, 10.0)">,</text><text xml:space="preserve" font-family="EurekaSans-RegularItalic" font-style="italic" font-size="28.0" fill="#000000" transform="matrix(1.00, 0.00, -0.00, -1.00, 186.5, 10.0)"> </text><text xml:space="preserve" font-family="EurekaSans-RegularItalic" font-style="italic" font-size="28.0" fill="#000000" transform="matrix(1.00, 0.00, -0.00, -1.00, 192.5, 10.0)">g</text><text xml:space="preserve" font-family="EurekaSans-RegularItalic" font-style="italic" font-size="28.0" fill="#000000" transform="matrix(1.00, 0.00, -0.00, -1.00, 202.9, 10.0)">o</text><text xml:space="preserve" font-family="EurekaSans-RegularItalic" font-style="italic" font-size="28.0" fill="#000000" transform="matrix(1.00, 0.00, -0.00, -1.00, 214.0, 10.0)">a</text><text xml:space="preserve" font-family="EurekaSans-RegularItalic" font-style="italic" font-size="28.0" fill="#000000" transform="matrix(1.00, 0.00, -0.00, -1.00, 224.8, 10.0)">t</text><text xml:space="preserve" font-family="EurekaSans-RegularItalic" font-style="italic" font-size="28.0" fill="#000000" transform="matrix(1.00, 0.00, -0.00, -1.00, 233.2, 10.0)">’</text><text xml:space="preserve" font-family="EurekaSans-RegularItalic" font-style="italic" font-size="28.0" fill="#000000" transform="matrix(1.00, 0.00, -0.00, -1.00, 237.9, 10.0)">s</text><text xml:space="preserve" font-family="EurekaSans-RegularItalic" font-style="italic" font-size="28.0" fill="#000000" transform="matrix(1.00, 0.00, -0.00, -1.00, 246.4, 10.0)"> </text><text xml:space="preserve" font-family="EurekaSans-RegularItalic" font-style="italic" font-size="28.0" fill="#000000" transform="matrix(1.00, 0.00, -0.00, -1.00, 252.4, 10.0)">k</text><text xml:space="preserve" font-family="EurekaSans-RegularItalic" font-style="italic" font-size="28.0" fill="#000000" transform="matrix(1.00, 0.00, -0.00, -1.00, 262.9, 10.0)">e</text><text xml:space="preserve" font-family="EurekaSans-RegularItalic" font-style="italic" font-size="28.0" fill="#000000" transform="matrix(1.00, 0.00, -0.00, -1.00, 272.3, 10.0)">ﬁ</text><text xml:space="preserve" font-family="EurekaSans-RegularItalic" font-style="italic" font-size="28.0" fill="#000000" transform="matrix(1.00, 0.00, -0.00, -1.00, 285.5, 10.0)">r</text><text xml:space="preserve" font-family="EurekaSans-RegularItalic" font-style="italic" font-size="28.0" fill="#000000" transform="matrix(1.00, 0.00, -0.00, -1.00, 293.2, 10.0)">,</text><text xml:space="preserve" font-family="EurekaSans-RegularItalic" font-style="italic" font-size="28.0" fill="#000000" transform="matrix(1.00, 0.00, -0.00, -1.00, 300.0, 10.0)"> </text><text xml:space="preserve" font-family="EurekaSans-RegularItalic" font-style="italic" font-size="28.0" fill="#000000" transform="matrix(1.00, 0.00, -0.00, -1.00, 306.0, 10.0)">o</text><text xml:space="preserve" font-family="EurekaSans-RegularItalic" font-style="italic" font-size="28.0" fill="#000000" transform="matrix(1.00, 0.00, -0.00, -1.00, 317.1, 10.0)">r</text><text xml:space="preserve" font-family="EurekaSans-RegularItalic" font-style="italic" font-size="28.0" fill="#000000" transform="matrix(1.00, 0.00, -0.00, -1.00, 324.8, 10.0)">e</text><text xml:space="preserve" font-family="EurekaSans-RegularItalic" font-style="italic" font-size="28.0" fill="#000000" transform="matrix(1.00, 0.00, -0.00, -1.00, 334.3, 10.0)">g</text><text xml:space="preserve" font-family="EurekaSans-RegularItalic" font-style="italic" font-size="28.0" fill="#000000" transform="matrix(1.00, 0.00, -0.00, -1.00, 344.7, 10.0)">a</text><text xml:space="preserve" font-family="EurekaSans-RegularItalic" font-style="italic" font-size="28.0" fill="#000000" transform="matrix(1.00, 0.00, -0.00, -1.00, 355.5, 10.0)">n</text><text xml:space="preserve" font-family="EurekaSans-RegularItalic" font-style="italic" font-size="28.0" fill="#000000" transform="matrix(1.00, 0.00, -0.00, -1.00, 367.2, 10.0)">o</text><text xml:space="preserve" font-family="EurekaSans-RegularItalic" font-style="italic" font-size="28.0" fill="#000000" transform="matrix(1.00, 0.00, -0.00, -1.00, 378.2, 10.0)">,</text><text xml:space="preserve" font-family="EurekaSans-RegularItalic" font-style="italic" font-size="28.0" fill="#000000" transform="matrix(1.00, 0.00, -0.00, -1.00, 385.1, 10.0)"> </text><text xml:space="preserve" font-family="EurekaSans-RegularItalic" font-style="italic" font-size="28.0" fill="#000000" transform="matrix(1.00, 0.00, -0.00, -1.00, 391.0, 10.0)">f</text><text xml:space="preserve" font-family="EurekaSans-RegularItalic" font-style="italic" font-size="28.0" fill="#000000" transform="matrix(1.00, 0.00, -0.00, -1.00, 398.3, 10.0)">a</text><text xml:space="preserve" font-family="EurekaSans-RegularItalic" font-style="italic" font-size="28.0" fill="#000000" transform="matrix(1.00, 0.00, -0.00, -1.00, 409.1, 10.0)">v</text><text xml:space="preserve" font-family="EurekaSans-RegularItalic" font-style="italic" font-size="28.0" fill="#000000" transform="matrix(1.00, 0.00, -0.00, -1.00, 419.2, 10.0)">a</text><text xml:space="preserve" font-family="EurekaSans-RegularItalic" font-style="italic" font-size="28.0" fill="#000000" transform="matrix(1.00, 0.00, -0.00, -1.00, 430.0, 10.0)"> </text><text xml:space="preserve" font-family="EurekaSans-RegularItalic" font-style="italic" font-size="28.0" fill="#000000" transform="matrix(1.00, 0.00, -0.00, -1.00, 435.9, 10.0)">b</text><text xml:space="preserve" font-family="EurekaSans-RegularItalic" font-style="italic" font-size="28.0" fill="#000000" transform="matrix(1.00, 0.00, -0.00, -1.00, 447.1, 10.0)">e</text><text xml:space="preserve" font-family="EurekaSans-RegularItalic" font-style="italic" font-size="28.0" fill="#000000" transform="matrix(1.00, 0.00, -0.00, -1.00, 456.5, 10.0)">a</text><text xml:space="preserve" font-family="EurekaSans-RegularItalic" font-style="italic" font-size="28.0" fill="#000000" transform="matrix(1.00, 0.00, -0.00, -1.00, 467.3, 10.0)">n</text><text xml:space="preserve" font-family="EurekaSans-RegularItalic" font-style="italic" font-size="28.0" fill="#000000" transform="matrix(1.00, 0.00, -0.00, -1.00, 479.0, 10.0)">.</text></g></svg>