<?xml version="1.0" encoding="UTF-8" standalone="no"?><svg xmlns="http://www.w3.org/2000/svg" xmlns:xlink="http://www.w3.org/1999/xlink" clip-rule="evenodd" stroke-miterlimit="4.00" viewBox="0 0 487 29"><desc>SVG generated by Keynote</desc><defs></defs><g transform="matrix(1.00, 0.00, -0.00, -1.00, 0.0, 29.0)"><text xml:space="preserve" font-family="EurekaSans-Regular" font-size="28.0" fill="#000000" transform="matrix(1.00, 0.00, -0.00, -1.00, 1.0, 9.0)">i</text><text xml:space="preserve" font-family="EurekaSans-Regular" font-size="28.0" fill="#000000" transform="matrix(1.00, 0.00, -0.00, -1.00, 7.8, 9.0)">n</text><text xml:space="preserve" font-family="EurekaSans-Regular" font-size="28.0" fill="#000000" transform="matrix(1.00, 0.00, -0.00, -1.00, 21.0, 9.0)">s</text><text xml:space="preserve" font-family="EurekaSans-Regular" font-size="28.0" fill="#000000" transform="matrix(1.00, 0.00, -0.00, -1.00, 30.3, 9.0)">t</text><text xml:space="preserve" font-family="EurekaSans-Regular" font-size="28.0" fill="#000000" transform="matrix(1.00, 0.00, -0.00, -1.00, 39.6, 9.0)">a</text><text xml:space="preserve" font-family="EurekaSans-Regular" font-size="28.0" fill="#000000" transform="matrix(1.00, 0.00, -0.00, -1.00, 50.8, 9.0)">l</text><text xml:space="preserve" font-family="EurekaSans-Regular" font-size="28.0" fill="#000000" transform="matrix(1.00, 0.00, -0.00, -1.00, 56.7, 9.0)">l</text><text xml:space="preserve" font-family="EurekaSans-Regular" font-size="28.0" fill="#000000" transform="matrix(1.00, 0.00, -0.00, -1.00, 62.5, 9.0)">a</text><text xml:space="preserve" font-family="EurekaSans-Regular" font-size="28.0" fill="#000000" transform="matrix(1.00, 0.00, -0.00, -1.00, 73.7, 9.0)">t</text><text xml:space="preserve" font-family="EurekaSans-Regular" font-size="28.0" fill="#000000" transform="matrix(1.00, 0.00, -0.00, -1.00, 83.0, 9.0)">i</text><text xml:space="preserve" font-family="EurekaSans-Regular" font-size="28.0" fill="#000000" transform="matrix(1.00, 0.00, -0.00, -1.00, 89.9, 9.0)">o</text><text xml:space="preserve" font-family="EurekaSans-Regular" font-size="28.0" fill="#000000" transform="matrix(1.00, 0.00, -0.00, -1.00, 102.2, 9.0)">n</text><text xml:space="preserve" font-family="EurekaSans-Regular" font-size="28.0" fill="#000000" transform="matrix(1.00, 0.00, -0.00, -1.00, 115.4, 9.0)">.</text><text xml:space="preserve" font-family="EurekaSans-Regular" font-size="28.0" fill="#000000" transform="matrix(1.00, 0.00, -0.00, -1.00, 122.9, 9.0)"> </text><text xml:space="preserve" font-family="EurekaSans-Regular" font-size="28.0" fill="#000000" transform="matrix(1.00, 0.00, -0.00, -1.00, 129.7, 9.0)">P</text><text xml:space="preserve" font-family="EurekaSans-Regular" font-size="28.0" fill="#000000" transform="matrix(1.00, 0.00, -0.00, -1.00, 142.2, 9.0)">i</text><text xml:space="preserve" font-family="EurekaSans-Regular" font-size="28.0" fill="#000000" transform="matrix(1.00, 0.00, -0.00, -1.00, 149.0, 9.0)">t</text><text xml:space="preserve" font-family="EurekaSans-Regular" font-size="28.0" fill="#000000" transform="matrix(1.00, 0.00, -0.00, -1.00, 158.3, 9.0)">h</text><text xml:space="preserve" font-family="EurekaSans-Regular" font-size="28.0" fill="#000000" transform="matrix(1.00, 0.00, -0.00, -1.00, 171.5, 9.0)"> </text><text xml:space="preserve" font-family="EurekaSans-Regular" font-size="28.0" fill="#000000" transform="matrix(1.00, 0.00, -0.00, -1.00, 178.2, 9.0)">d</text><text xml:space="preserve" font-family="EurekaSans-Regular" font-size="28.0" fill="#000000" transform="matrix(1.00, 0.00, -0.00, -1.00, 190.9, 9.0)">e</text><text xml:space="preserve" font-family="EurekaSans-Regular" font-size="28.0" fill="#000000" transform="matrix(1.00, 0.00, -0.00, -1.00, 202.2, 9.0)">s</text><text xml:space="preserve" font-family="EurekaSans-Regular" font-size="28.0" fill="#000000" transform="matrix(1.00, 0.00, -0.00, -1.00, 211.5, 9.0)">i</text><text xml:space="preserve" font-family="EurekaSans-Regular" font-size="28.0" fill="#000000" transform="matrix(1.00, 0.00, -0.00, -1.00, 218.3, 9.0)">g</text><text xml:space="preserve" font-family="EurekaSans-Regular" font-size="28.0" fill="#000000" transform="matrix(1.00, 0.00, -0.00, -1.00, 230.6, 9.0)">n</text><text xml:space="preserve" font-family="EurekaSans-Regular" font-size="28.0" fill="#000000" transform="matrix(1.00, 0.00, -0.00, -1.00, 243.8, 9.0)">e</text><text xml:space="preserve" font-family="EurekaSans-Regular" font-size="28.0" fill="#000000" transform="matrix(1.00, 0.00, -0.00, -1.00, 255.0, 9.0)">d</text><text xml:space="preserve" font-family="EurekaSans-Regular" font-size="28.0" fill="#000000" transform="matrix(1.00, 0.00, -0.00, -1.00, 267.7, 9.0)"> </text><text xml:space="preserve" font-family="EurekaSans-Regular" font-size="28.0" fill="#000000" transform="matrix(1.00, 0.00, -0.00, -1.00, 274.4, 9.0)">a</text><text xml:space="preserve" font-family="EurekaSans-Regular" font-size="28.0" fill="#000000" transform="matrix(1.00, 0.00, -0.00, -1.00, 285.6, 9.0)"> </text><text xml:space="preserve" font-family="EurekaSans-Regular" font-size="28.0" fill="#000000" transform="matrix(1.00, 0.00, -0.00, -1.00, 292.4, 9.0)">m</text><text xml:space="preserve" font-family="EurekaSans-Regular" font-size="28.0" fill="#000000" transform="matrix(1.00, 0.00, -0.00, -1.00, 311.5, 9.0)">o</text><text xml:space="preserve" font-family="EurekaSans-Regular" font-size="28.0" fill="#000000" transform="matrix(1.00, 0.00, -0.00, -1.00, 323.9, 9.0)">n</text><text xml:space="preserve" font-family="EurekaSans-Regular" font-size="28.0" fill="#000000" transform="matrix(1.00, 0.00, -0.00, -1.00, 337.1, 9.0)">t</text><text xml:space="preserve" font-family="EurekaSans-Regular" font-size="28.0" fill="#000000" transform="matrix(1.00, 0.00, -0.00, -1.00, 346.4, 9.0)">h</text><text xml:space="preserve" font-family="EurekaSans-Regular" font-size="28.0" fill="#000000" transform="matrix(1.00, 0.00, -0.00, -1.00, 359.5, 9.0)">l</text><text xml:space="preserve" font-family="EurekaSans-Regular" font-size="28.0" fill="#000000" transform="matrix(1.00, 0.00, -0.00, -1.00, 365.4, 9.0)">o</text><text xml:space="preserve" font-family="EurekaSans-Regular" font-size="28.0" fill="#000000" transform="matrix(1.00, 0.00, -0.00, -1.00, 377.8, 9.0)">n</text><text xml:space="preserve" font-family="EurekaSans-Regular" font-size="28.0" fill="#000000" transform="matrix(1.00, 0.00, -0.00, -1.00, 390.9, 9.0)">g</text><text xml:space="preserve" font-family="EurekaSans-Regular" font-size="28.0" fill="#000000" transform="matrix(1.00, 0.00, -0.00, -1.00, 403.2, 9.0)"> </text><text xml:space="preserve" font-family="EurekaSans-Regular" font-size="28.0" fill="#000000" transform="matrix(1.00, 0.00, -0.00, -1.00, 410.0, 9.0)">p</text><text xml:space="preserve" font-family="EurekaSans-Regular" font-size="28.0" fill="#000000" transform="matrix(1.00, 0.00, -0.00, -1.00, 422.5, 9.0)">o</text><text xml:space="preserve" font-family="EurekaSans-Regular" font-size="28.0" fill="#000000" transform="matrix(1.00, 0.00, -0.00, -1.00, 434.8, 9.0)">p</text><text xml:space="preserve" font-family="EurekaSans-Regular" font-size="28.0" fill="#000000" transform="matrix(1.00, 0.00, -0.00, -1.00, 447.3, 9.0)">-</text><text xml:space="preserve" font-family="EurekaSans-Regular" font-size="28.0" fill="#000000" transform="matrix(1.00, 0.00, -0.00, -1.00, 454.3, 9.0)">u</text><text xml:space="preserve" font-family="EurekaSans-Regular" font-size="28.0" fill="#000000" transform="matrix(1.00, 0.00, -0.00, -1.00, 467.1, 9.0)">p</text><text xml:space="preserve" font-family="EurekaSans-Regular" font-size="28.0" fill="#000000" transform="matrix(1.00, 0.00, -0.00, -1.00, 479.6, 9.0)">,</text></g></svg>