<?xml version="1.0" encoding="UTF-8" standalone="no"?><svg xmlns="http://www.w3.org/2000/svg" xmlns:xlink="http://www.w3.org/1999/xlink" clip-rule="evenodd" stroke-miterlimit="4.00" viewBox="0 0 251 22"><desc>SVG generated by Keynote</desc><defs></defs><g transform="matrix(1.00, 0.00, -0.00, -1.00, 0.0, 22.0)"><text xml:space="preserve" font-family="EurekaSans-Regular" font-size="28.0" fill="#000000" transform="matrix(1.00, 0.00, -0.00, -1.00, 2.0, 2.0)">o</text><text xml:space="preserve" font-family="EurekaSans-Regular" font-size="28.0" fill="#000000" transform="matrix(1.00, 0.00, -0.00, -1.00, 14.4, 2.0)">u</text><text xml:space="preserve" font-family="EurekaSans-Regular" font-size="28.0" fill="#000000" transform="matrix(1.00, 0.00, -0.00, -1.00, 27.2, 2.0)">t</text><text xml:space="preserve" font-family="EurekaSans-Regular" font-size="28.0" fill="#000000" transform="matrix(1.00, 0.00, -0.00, -1.00, 36.5, 2.0)">l</text><text xml:space="preserve" font-family="EurekaSans-Regular" font-size="28.0" fill="#000000" transform="matrix(1.00, 0.00, -0.00, -1.00, 42.3, 2.0)">e</text><text xml:space="preserve" font-family="EurekaSans-Regular" font-size="28.0" fill="#000000" transform="matrix(1.00, 0.00, -0.00, -1.00, 53.6, 2.0)">t</text><text xml:space="preserve" font-family="EurekaSans-Regular" font-size="28.0" fill="#000000" transform="matrix(1.00, 0.00, -0.00, -1.00, 62.9, 2.0)">s</text><text xml:space="preserve" font-family="EurekaSans-Regular" font-size="28.0" fill="#000000" transform="matrix(1.00, 0.00, -0.00, -1.00, 72.3, 2.0)"> </text><text xml:space="preserve" font-family="EurekaSans-Regular" font-size="28.0" fill="#000000" transform="matrix(1.00, 0.00, -0.00, -1.00, 79.0, 2.0)">a</text><text xml:space="preserve" font-family="EurekaSans-Regular" font-size="28.0" fill="#000000" transform="matrix(1.00, 0.00, -0.00, -1.00, 90.2, 2.0)">c</text><text xml:space="preserve" font-family="EurekaSans-Regular" font-size="28.0" fill="#000000" transform="matrix(1.00, 0.00, -0.00, -1.00, 100.8, 2.0)">r</text><text xml:space="preserve" font-family="EurekaSans-Regular" font-size="28.0" fill="#000000" transform="matrix(1.00, 0.00, -0.00, -1.00, 109.1, 2.0)">o</text><text xml:space="preserve" font-family="EurekaSans-Regular" font-size="28.0" fill="#000000" transform="matrix(1.00, 0.00, -0.00, -1.00, 121.4, 2.0)">s</text><text xml:space="preserve" font-family="EurekaSans-Regular" font-size="28.0" fill="#000000" transform="matrix(1.00, 0.00, -0.00, -1.00, 130.8, 2.0)">s</text><text xml:space="preserve" font-family="EurekaSans-Regular" font-size="28.0" fill="#000000" transform="matrix(1.00, 0.00, -0.00, -1.00, 140.2, 2.0)"> </text><text xml:space="preserve" font-family="EurekaSans-Regular" font-size="28.0" fill="#000000" transform="matrix(1.00, 0.00, -0.00, -1.00, 146.9, 2.0)">t</text><text xml:space="preserve" font-family="EurekaSans-Regular" font-size="28.0" fill="#000000" transform="matrix(1.00, 0.00, -0.00, -1.00, 156.2, 2.0)">h</text><text xml:space="preserve" font-family="EurekaSans-Regular" font-size="28.0" fill="#000000" transform="matrix(1.00, 0.00, -0.00, -1.00, 169.4, 2.0)">e</text><text xml:space="preserve" font-family="EurekaSans-Regular" font-size="28.0" fill="#000000" transform="matrix(1.00, 0.00, -0.00, -1.00, 180.7, 2.0)"> </text><text xml:space="preserve" font-family="EurekaSans-Regular" font-size="28.0" fill="#000000" transform="matrix(1.00, 0.00, -0.00, -1.00, 187.4, 2.0)">w</text><text xml:space="preserve" font-family="EurekaSans-Regular" font-size="28.0" fill="#000000" transform="matrix(1.00, 0.00, -0.00, -1.00, 205.1, 2.0)">o</text><text xml:space="preserve" font-family="EurekaSans-Regular" font-size="28.0" fill="#000000" transform="matrix(1.00, 0.00, -0.00, -1.00, 217.5, 2.0)">r</text><text xml:space="preserve" font-family="EurekaSans-Regular" font-size="28.0" fill="#000000" transform="matrix(1.00, 0.00, -0.00, -1.00, 225.8, 2.0)">l</text><text xml:space="preserve" font-family="EurekaSans-Regular" font-size="28.0" fill="#000000" transform="matrix(1.00, 0.00, -0.00, -1.00, 231.6, 2.0)">d</text><text xml:space="preserve" font-family="EurekaSans-Regular" font-size="28.0" fill="#000000" transform="matrix(1.00, 0.00, -0.00, -1.00, 244.3, 2.0)">.</text></g></svg>