<?xml version="1.0" encoding="UTF-8" standalone="no"?><svg xmlns="http://www.w3.org/2000/svg" xmlns:xlink="http://www.w3.org/1999/xlink" clip-rule="evenodd" stroke-miterlimit="4.00" viewBox="0 0 453 29"><desc>SVG generated by Keynote</desc><defs></defs><g transform="matrix(1.00, 0.00, -0.00, -1.00, 0.0, 29.0)"><text xml:space="preserve" font-family="EurekaSans-RegularItalic" font-style="italic" font-size="28.0" fill="#000000" transform="matrix(1.00, 0.00, -0.00, -1.00, 2.0, 9.0)">a</text><text xml:space="preserve" font-family="EurekaSans-RegularItalic" font-style="italic" font-size="28.0" fill="#000000" transform="matrix(1.00, 0.00, -0.00, -1.00, 12.8, 9.0)">n</text><text xml:space="preserve" font-family="EurekaSans-RegularItalic" font-style="italic" font-size="28.0" fill="#000000" transform="matrix(1.00, 0.00, -0.00, -1.00, 24.5, 9.0)">d</text><text xml:space="preserve" font-family="EurekaSans-RegularItalic" font-style="italic" font-size="28.0" fill="#000000" transform="matrix(1.00, 0.00, -0.00, -1.00, 35.3, 9.0)"> </text><text xml:space="preserve" font-family="EurekaSans-RegularItalic" font-style="italic" font-size="28.0" fill="#000000" transform="matrix(1.00, 0.00, -0.00, -1.00, 41.3, 9.0)">c</text><text xml:space="preserve" font-family="EurekaSans-RegularItalic" font-style="italic" font-size="28.0" fill="#000000" transform="matrix(1.00, 0.00, -0.00, -1.00, 50.3, 9.0)">l</text><text xml:space="preserve" font-family="EurekaSans-RegularItalic" font-style="italic" font-size="28.0" fill="#000000" transform="matrix(1.00, 0.00, -0.00, -1.00, 56.3, 9.0)">o</text><text xml:space="preserve" font-family="EurekaSans-RegularItalic" font-style="italic" font-size="28.0" fill="#000000" transform="matrix(1.00, 0.00, -0.00, -1.00, 67.4, 9.0)">v</text><text xml:space="preserve" font-family="EurekaSans-RegularItalic" font-style="italic" font-size="28.0" fill="#000000" transform="matrix(1.00, 0.00, -0.00, -1.00, 77.4, 9.0)">e</text><text xml:space="preserve" font-family="EurekaSans-RegularItalic" font-style="italic" font-size="28.0" fill="#000000" transform="matrix(1.00, 0.00, -0.00, -1.00, 86.8, 9.0)"> </text><text xml:space="preserve" font-family="EurekaSans-RegularItalic" font-style="italic" font-size="28.0" fill="#000000" transform="matrix(1.00, 0.00, -0.00, -1.00, 92.7, 9.0)">c</text><text xml:space="preserve" font-family="EurekaSans-RegularItalic" font-style="italic" font-size="28.0" fill="#000000" transform="matrix(1.00, 0.00, -0.00, -1.00, 101.7, 9.0)">o</text><text xml:space="preserve" font-family="EurekaSans-RegularItalic" font-style="italic" font-size="28.0" fill="#000000" transform="matrix(1.00, 0.00, -0.00, -1.00, 112.8, 9.0)">m</text><text xml:space="preserve" font-family="EurekaSans-RegularItalic" font-style="italic" font-size="28.0" fill="#000000" transform="matrix(1.00, 0.00, -0.00, -1.00, 129.3, 9.0)">p</text><text xml:space="preserve" font-family="EurekaSans-RegularItalic" font-style="italic" font-size="28.0" fill="#000000" transform="matrix(1.00, 0.00, -0.00, -1.00, 140.7, 9.0)">o</text><text xml:space="preserve" font-family="EurekaSans-RegularItalic" font-style="italic" font-size="28.0" fill="#000000" transform="matrix(1.00, 0.00, -0.00, -1.00, 151.7, 9.0)">t</text><text xml:space="preserve" font-family="EurekaSans-RegularItalic" font-style="italic" font-size="28.0" fill="#000000" transform="matrix(1.00, 0.00, -0.00, -1.00, 160.2, 9.0)">e</text><text xml:space="preserve" font-family="EurekaSans-RegularItalic" font-style="italic" font-size="28.0" fill="#000000" transform="matrix(1.00, 0.00, -0.00, -1.00, 169.6, 9.0)">,</text><text xml:space="preserve" font-family="EurekaSans-RegularItalic" font-style="italic" font-size="28.0" fill="#000000" transform="matrix(1.00, 0.00, -0.00, -1.00, 176.4, 9.0)"> </text><text xml:space="preserve" font-family="EurekaSans-RegularItalic" font-style="italic" font-size="28.0" fill="#000000" transform="matrix(1.00, 0.00, -0.00, -1.00, 182.4, 9.0)">h</text><text xml:space="preserve" font-family="EurekaSans-RegularItalic" font-style="italic" font-size="28.0" fill="#000000" transform="matrix(1.00, 0.00, -0.00, -1.00, 194.1, 9.0)">o</text><text xml:space="preserve" font-family="EurekaSans-RegularItalic" font-style="italic" font-size="28.0" fill="#000000" transform="matrix(1.00, 0.00, -0.00, -1.00, 205.1, 9.0)">p</text><text xml:space="preserve" font-family="EurekaSans-RegularItalic" font-style="italic" font-size="28.0" fill="#000000" transform="matrix(1.00, 0.00, -0.00, -1.00, 216.5, 9.0)">p</text><text xml:space="preserve" font-family="EurekaSans-RegularItalic" font-style="italic" font-size="28.0" fill="#000000" transform="matrix(1.00, 0.00, -0.00, -1.00, 227.9, 9.0)">e</text><text xml:space="preserve" font-family="EurekaSans-RegularItalic" font-style="italic" font-size="28.0" fill="#000000" transform="matrix(1.00, 0.00, -0.00, -1.00, 237.4, 9.0)">d</text><text xml:space="preserve" font-family="EurekaSans-RegularItalic" font-style="italic" font-size="28.0" fill="#000000" transform="matrix(1.00, 0.00, -0.00, -1.00, 248.2, 9.0)"> </text><text xml:space="preserve" font-family="EurekaSans-RegularItalic" font-style="italic" font-size="28.0" fill="#000000" transform="matrix(1.00, 0.00, -0.00, -1.00, 254.2, 9.0)">w</text><text xml:space="preserve" font-family="EurekaSans-RegularItalic" font-style="italic" font-size="28.0" fill="#000000" transform="matrix(1.00, 0.00, -0.00, -1.00, 269.4, 9.0)">h</text><text xml:space="preserve" font-family="EurekaSans-RegularItalic" font-style="italic" font-size="28.0" fill="#000000" transform="matrix(1.00, 0.00, -0.00, -1.00, 281.1, 9.0)">i</text><text xml:space="preserve" font-family="EurekaSans-RegularItalic" font-style="italic" font-size="28.0" fill="#000000" transform="matrix(1.00, 0.00, -0.00, -1.00, 287.2, 9.0)">p</text><text xml:space="preserve" font-family="EurekaSans-RegularItalic" font-style="italic" font-size="28.0" fill="#000000" transform="matrix(1.00, 0.00, -0.00, -1.00, 298.5, 9.0)">p</text><text xml:space="preserve" font-family="EurekaSans-RegularItalic" font-style="italic" font-size="28.0" fill="#000000" transform="matrix(1.00, 0.00, -0.00, -1.00, 309.9, 9.0)">e</text><text xml:space="preserve" font-family="EurekaSans-RegularItalic" font-style="italic" font-size="28.0" fill="#000000" transform="matrix(1.00, 0.00, -0.00, -1.00, 319.4, 9.0)">d</text><text xml:space="preserve" font-family="EurekaSans-RegularItalic" font-style="italic" font-size="28.0" fill="#000000" transform="matrix(1.00, 0.00, -0.00, -1.00, 330.2, 9.0)"> </text><text xml:space="preserve" font-family="EurekaSans-RegularItalic" font-style="italic" font-size="28.0" fill="#000000" transform="matrix(1.00, 0.00, -0.00, -1.00, 336.2, 9.0)">c</text><text xml:space="preserve" font-family="EurekaSans-RegularItalic" font-style="italic" font-size="28.0" fill="#000000" transform="matrix(1.00, 0.00, -0.00, -1.00, 345.2, 9.0)">r</text><text xml:space="preserve" font-family="EurekaSans-RegularItalic" font-style="italic" font-size="28.0" fill="#000000" transform="matrix(1.00, 0.00, -0.00, -1.00, 352.9, 9.0)">e</text><text xml:space="preserve" font-family="EurekaSans-RegularItalic" font-style="italic" font-size="28.0" fill="#000000" transform="matrix(1.00, 0.00, -0.00, -1.00, 362.4, 9.0)">a</text><text xml:space="preserve" font-family="EurekaSans-RegularItalic" font-style="italic" font-size="28.0" fill="#000000" transform="matrix(1.00, 0.00, -0.00, -1.00, 373.2, 9.0)">m</text><text xml:space="preserve" font-family="EurekaSans-RegularItalic" font-style="italic" font-size="28.0" fill="#000000" transform="matrix(1.00, 0.00, -0.00, -1.00, 389.6, 9.0)">,</text><text xml:space="preserve" font-family="EurekaSans-RegularItalic" font-style="italic" font-size="28.0" fill="#000000" transform="matrix(1.00, 0.00, -0.00, -1.00, 396.4, 9.0)"> </text><text xml:space="preserve" font-family="EurekaSans-RegularItalic" font-style="italic" font-size="28.0" fill="#000000" transform="matrix(1.00, 0.00, -0.00, -1.00, 402.4, 9.0)">m</text><text xml:space="preserve" font-family="EurekaSans-RegularItalic" font-style="italic" font-size="28.0" fill="#000000" transform="matrix(1.00, 0.00, -0.00, -1.00, 418.8, 9.0)">i</text><text xml:space="preserve" font-family="EurekaSans-RegularItalic" font-style="italic" font-size="28.0" fill="#000000" transform="matrix(1.00, 0.00, -0.00, -1.00, 424.9, 9.0)">c</text><text xml:space="preserve" font-family="EurekaSans-RegularItalic" font-style="italic" font-size="28.0" fill="#000000" transform="matrix(1.00, 0.00, -0.00, -1.00, 433.8, 9.0)">r</text><text xml:space="preserve" font-family="EurekaSans-RegularItalic" font-style="italic" font-size="28.0" fill="#000000" transform="matrix(1.00, 0.00, -0.00, -1.00, 441.6, 9.0)">o</text></g></svg>