<?xml version="1.0" encoding="UTF-8" standalone="no"?><svg xmlns="http://www.w3.org/2000/svg" xmlns:xlink="http://www.w3.org/1999/xlink" clip-rule="evenodd" stroke-miterlimit="4.00" viewBox="0 0 256 25"><desc>SVG generated by Keynote</desc><defs></defs><g transform="matrix(1.00, 0.00, -0.00, -1.00, 0.0, 25.0)"><text xml:space="preserve" font-family="EurekaSans-Light" font-size="36.0" fill="#6DA2C9" transform="matrix(1.00, 0.00, -0.00, -1.00, 2.0, 9.0)">3</text><text xml:space="preserve" font-family="EurekaSans-Light" font-size="36.0" fill="#6DA2C9" transform="matrix(1.00, 0.00, -0.00, -1.00, 15.6, 9.0)">:</text><text xml:space="preserve" font-family="EurekaSans-Light" font-size="36.0" fill="#6DA2C9" transform="matrix(1.00, 0.00, -0.00, -1.00, 25.1, 9.0)"> </text><text xml:space="preserve" font-family="EurekaSans-RegularSC" font-size="36.0" fill="#000000" transform="matrix(1.00, 0.00, -0.00, -1.00, 33.8, 9.0)">f</text><text xml:space="preserve" font-family="EurekaSans-RegularSC" font-size="36.0" fill="#000000" transform="matrix(1.00, 0.00, -0.00, -1.00, 47.4, 9.0)">r</text><text xml:space="preserve" font-family="EurekaSans-RegularSC" font-size="36.0" fill="#000000" transform="matrix(1.00, 0.00, -0.00, -1.00, 63.6, 9.0)">o</text><text xml:space="preserve" font-family="EurekaSans-RegularSC" font-size="36.0" fill="#000000" transform="matrix(1.00, 0.00, -0.00, -1.00, 82.1, 9.0)">n</text><text xml:space="preserve" font-family="EurekaSans-RegularSC" font-size="36.0" fill="#000000" transform="matrix(1.00, 0.00, -0.00, -1.00, 101.3, 9.0)">t</text><text xml:space="preserve" font-family="EurekaSans-RegularSC" font-size="36.0" fill="#000000" transform="matrix(1.00, 0.00, -0.00, -1.00, 115.5, 9.0)"> </text><text xml:space="preserve" font-family="EurekaSans-RegularSC" font-size="36.0" fill="#000000" transform="matrix(1.00, 0.00, -0.00, -1.00, 124.2, 9.0)">a</text><text xml:space="preserve" font-family="EurekaSans-RegularSC" font-size="36.0" fill="#000000" transform="matrix(1.00, 0.00, -0.00, -1.00, 140.1, 9.0)">r</text><text xml:space="preserve" font-family="EurekaSans-RegularSC" font-size="36.0" fill="#000000" transform="matrix(1.00, 0.00, -0.00, -1.00, 156.3, 9.0)">t</text><text xml:space="preserve" font-family="EurekaSans-RegularSC" font-size="36.0" fill="#000000" transform="matrix(1.00, 0.00, -0.00, -1.00, 170.6, 9.0)"> </text><text xml:space="preserve" font-family="EurekaSans-RegularSC" font-size="36.0" fill="#000000" transform="matrix(1.00, 0.00, -0.00, -1.00, 179.3, 9.0)">s</text><text xml:space="preserve" font-family="EurekaSans-RegularSC" font-size="36.0" fill="#000000" transform="matrix(1.00, 0.00, -0.00, -1.00, 193.7, 9.0)">p</text><text xml:space="preserve" font-family="EurekaSans-RegularSC" font-size="36.0" fill="#000000" transform="matrix(1.00, 0.00, -0.00, -1.00, 208.8, 9.0)">a</text><text xml:space="preserve" font-family="EurekaSans-RegularSC" font-size="36.0" fill="#000000" transform="matrix(1.00, 0.00, -0.00, -1.00, 224.7, 9.0)">c</text><text xml:space="preserve" font-family="EurekaSans-RegularSC" font-size="36.0" fill="#000000" transform="matrix(1.00, 0.00, -0.00, -1.00, 240.4, 9.0)">e</text></g></svg>