<?xml version="1.0" encoding="UTF-8" standalone="no"?><svg xmlns="http://www.w3.org/2000/svg" xmlns:xlink="http://www.w3.org/1999/xlink" clip-rule="evenodd" stroke-miterlimit="4.00" viewBox="0 0 453 29"><desc>SVG generated by Keynote</desc><defs></defs><g transform="matrix(1.00, 0.00, -0.00, -1.00, 0.0, 29.0)"><text xml:space="preserve" font-family="EurekaSans-RegularItalic" font-style="italic" font-size="28.0" fill="#000000" transform="matrix(1.00, 0.00, -0.00, -1.00, 1.0, 9.0)">a</text><text xml:space="preserve" font-family="EurekaSans-RegularItalic" font-style="italic" font-size="28.0" fill="#000000" transform="matrix(1.00, 0.00, -0.00, -1.00, 11.8, 9.0)">n</text><text xml:space="preserve" font-family="EurekaSans-RegularItalic" font-style="italic" font-size="28.0" fill="#000000" transform="matrix(1.00, 0.00, -0.00, -1.00, 23.5, 9.0)">d</text><text xml:space="preserve" font-family="EurekaSans-RegularItalic" font-style="italic" font-size="28.0" fill="#000000" transform="matrix(1.00, 0.00, -0.00, -1.00, 34.3, 9.0)"> </text><text xml:space="preserve" font-family="EurekaSans-RegularItalic" font-style="italic" font-size="28.0" fill="#000000" transform="matrix(1.00, 0.00, -0.00, -1.00, 40.3, 9.0)">c</text><text xml:space="preserve" font-family="EurekaSans-RegularItalic" font-style="italic" font-size="28.0" fill="#000000" transform="matrix(1.00, 0.00, -0.00, -1.00, 49.3, 9.0)">l</text><text xml:space="preserve" font-family="EurekaSans-RegularItalic" font-style="italic" font-size="28.0" fill="#000000" transform="matrix(1.00, 0.00, -0.00, -1.00, 55.3, 9.0)">o</text><text xml:space="preserve" font-family="EurekaSans-RegularItalic" font-style="italic" font-size="28.0" fill="#000000" transform="matrix(1.00, 0.00, -0.00, -1.00, 66.4, 9.0)">v</text><text xml:space="preserve" font-family="EurekaSans-RegularItalic" font-style="italic" font-size="28.0" fill="#000000" transform="matrix(1.00, 0.00, -0.00, -1.00, 76.4, 9.0)">e</text><text xml:space="preserve" font-family="EurekaSans-RegularItalic" font-style="italic" font-size="28.0" fill="#000000" transform="matrix(1.00, 0.00, -0.00, -1.00, 85.8, 9.0)"> </text><text xml:space="preserve" font-family="EurekaSans-RegularItalic" font-style="italic" font-size="28.0" fill="#000000" transform="matrix(1.00, 0.00, -0.00, -1.00, 91.7, 9.0)">c</text><text xml:space="preserve" font-family="EurekaSans-RegularItalic" font-style="italic" font-size="28.0" fill="#000000" transform="matrix(1.00, 0.00, -0.00, -1.00, 100.7, 9.0)">o</text><text xml:space="preserve" font-family="EurekaSans-RegularItalic" font-style="italic" font-size="28.0" fill="#000000" transform="matrix(1.00, 0.00, -0.00, -1.00, 111.8, 9.0)">m</text><text xml:space="preserve" font-family="EurekaSans-RegularItalic" font-style="italic" font-size="28.0" fill="#000000" transform="matrix(1.00, 0.00, -0.00, -1.00, 128.3, 9.0)">p</text><text xml:space="preserve" font-family="EurekaSans-RegularItalic" font-style="italic" font-size="28.0" fill="#000000" transform="matrix(1.00, 0.00, -0.00, -1.00, 139.7, 9.0)">o</text><text xml:space="preserve" font-family="EurekaSans-RegularItalic" font-style="italic" font-size="28.0" fill="#000000" transform="matrix(1.00, 0.00, -0.00, -1.00, 150.7, 9.0)">t</text><text xml:space="preserve" font-family="EurekaSans-RegularItalic" font-style="italic" font-size="28.0" fill="#000000" transform="matrix(1.00, 0.00, -0.00, -1.00, 159.2, 9.0)">e</text><text xml:space="preserve" font-family="EurekaSans-RegularItalic" font-style="italic" font-size="28.0" fill="#000000" transform="matrix(1.00, 0.00, -0.00, -1.00, 168.6, 9.0)">,</text><text xml:space="preserve" font-family="EurekaSans-RegularItalic" font-style="italic" font-size="28.0" fill="#000000" transform="matrix(1.00, 0.00, -0.00, -1.00, 175.4, 9.0)"> </text><text xml:space="preserve" font-family="EurekaSans-RegularItalic" font-style="italic" font-size="28.0" fill="#000000" transform="matrix(1.00, 0.00, -0.00, -1.00, 181.4, 9.0)">h</text><text xml:space="preserve" font-family="EurekaSans-RegularItalic" font-style="italic" font-size="28.0" fill="#000000" transform="matrix(1.00, 0.00, -0.00, -1.00, 193.1, 9.0)">o</text><text xml:space="preserve" font-family="EurekaSans-RegularItalic" font-style="italic" font-size="28.0" fill="#000000" transform="matrix(1.00, 0.00, -0.00, -1.00, 204.1, 9.0)">p</text><text xml:space="preserve" font-family="EurekaSans-RegularItalic" font-style="italic" font-size="28.0" fill="#000000" transform="matrix(1.00, 0.00, -0.00, -1.00, 215.5, 9.0)">p</text><text xml:space="preserve" font-family="EurekaSans-RegularItalic" font-style="italic" font-size="28.0" fill="#000000" transform="matrix(1.00, 0.00, -0.00, -1.00, 226.9, 9.0)">e</text><text xml:space="preserve" font-family="EurekaSans-RegularItalic" font-style="italic" font-size="28.0" fill="#000000" transform="matrix(1.00, 0.00, -0.00, -1.00, 236.4, 9.0)">d</text><text xml:space="preserve" font-family="EurekaSans-RegularItalic" font-style="italic" font-size="28.0" fill="#000000" transform="matrix(1.00, 0.00, -0.00, -1.00, 247.2, 9.0)"> </text><text xml:space="preserve" font-family="EurekaSans-RegularItalic" font-style="italic" font-size="28.0" fill="#000000" transform="matrix(1.00, 0.00, -0.00, -1.00, 253.2, 9.0)">w</text><text xml:space="preserve" font-family="EurekaSans-RegularItalic" font-style="italic" font-size="28.0" fill="#000000" transform="matrix(1.00, 0.00, -0.00, -1.00, 268.4, 9.0)">h</text><text xml:space="preserve" font-family="EurekaSans-RegularItalic" font-style="italic" font-size="28.0" fill="#000000" transform="matrix(1.00, 0.00, -0.00, -1.00, 280.1, 9.0)">i</text><text xml:space="preserve" font-family="EurekaSans-RegularItalic" font-style="italic" font-size="28.0" fill="#000000" transform="matrix(1.00, 0.00, -0.00, -1.00, 286.2, 9.0)">p</text><text xml:space="preserve" font-family="EurekaSans-RegularItalic" font-style="italic" font-size="28.0" fill="#000000" transform="matrix(1.00, 0.00, -0.00, -1.00, 297.5, 9.0)">p</text><text xml:space="preserve" font-family="EurekaSans-RegularItalic" font-style="italic" font-size="28.0" fill="#000000" transform="matrix(1.00, 0.00, -0.00, -1.00, 308.9, 9.0)">e</text><text xml:space="preserve" font-family="EurekaSans-RegularItalic" font-style="italic" font-size="28.0" fill="#000000" transform="matrix(1.00, 0.00, -0.00, -1.00, 318.4, 9.0)">d</text><text xml:space="preserve" font-family="EurekaSans-RegularItalic" font-style="italic" font-size="28.0" fill="#000000" transform="matrix(1.00, 0.00, -0.00, -1.00, 329.2, 9.0)"> </text><text xml:space="preserve" font-family="EurekaSans-RegularItalic" font-style="italic" font-size="28.0" fill="#000000" transform="matrix(1.00, 0.00, -0.00, -1.00, 335.2, 9.0)">c</text><text xml:space="preserve" font-family="EurekaSans-RegularItalic" font-style="italic" font-size="28.0" fill="#000000" transform="matrix(1.00, 0.00, -0.00, -1.00, 344.2, 9.0)">r</text><text xml:space="preserve" font-family="EurekaSans-RegularItalic" font-style="italic" font-size="28.0" fill="#000000" transform="matrix(1.00, 0.00, -0.00, -1.00, 351.9, 9.0)">e</text><text xml:space="preserve" font-family="EurekaSans-RegularItalic" font-style="italic" font-size="28.0" fill="#000000" transform="matrix(1.00, 0.00, -0.00, -1.00, 361.4, 9.0)">a</text><text xml:space="preserve" font-family="EurekaSans-RegularItalic" font-style="italic" font-size="28.0" fill="#000000" transform="matrix(1.00, 0.00, -0.00, -1.00, 372.2, 9.0)">m</text><text xml:space="preserve" font-family="EurekaSans-RegularItalic" font-style="italic" font-size="28.0" fill="#000000" transform="matrix(1.00, 0.00, -0.00, -1.00, 388.6, 9.0)">,</text><text xml:space="preserve" font-family="EurekaSans-RegularItalic" font-style="italic" font-size="28.0" fill="#000000" transform="matrix(1.00, 0.00, -0.00, -1.00, 395.4, 9.0)"> </text><text xml:space="preserve" font-family="EurekaSans-RegularItalic" font-style="italic" font-size="28.0" fill="#000000" transform="matrix(1.00, 0.00, -0.00, -1.00, 401.4, 9.0)">m</text><text xml:space="preserve" font-family="EurekaSans-RegularItalic" font-style="italic" font-size="28.0" fill="#000000" transform="matrix(1.00, 0.00, -0.00, -1.00, 417.8, 9.0)">i</text><text xml:space="preserve" font-family="EurekaSans-RegularItalic" font-style="italic" font-size="28.0" fill="#000000" transform="matrix(1.00, 0.00, -0.00, -1.00, 423.9, 9.0)">c</text><text xml:space="preserve" font-family="EurekaSans-RegularItalic" font-style="italic" font-size="28.0" fill="#000000" transform="matrix(1.00, 0.00, -0.00, -1.00, 432.8, 9.0)">r</text><text xml:space="preserve" font-family="EurekaSans-RegularItalic" font-style="italic" font-size="28.0" fill="#000000" transform="matrix(1.00, 0.00, -0.00, -1.00, 440.6, 9.0)">o</text></g></svg>