<?xml version="1.0" encoding="UTF-8" standalone="no"?><svg xmlns="http://www.w3.org/2000/svg" xmlns:xlink="http://www.w3.org/1999/xlink" clip-rule="evenodd" stroke-miterlimit="4.00" viewBox="0 0 142 21"><desc>SVG generated by Keynote</desc><defs></defs><g transform="matrix(1.00, 0.00, -0.00, -1.00, 0.0, 21.0)"><text xml:space="preserve" font-family="EurekaSans-Regular" font-size="28.0" fill="#000000" transform="matrix(1.00, 0.00, -0.00, -1.00, 2.0, 3.0)">e</text><text xml:space="preserve" font-family="EurekaSans-Regular" font-size="28.0" fill="#000000" transform="matrix(1.00, 0.00, -0.00, -1.00, 13.3, 3.0)">n</text><text xml:space="preserve" font-family="EurekaSans-Regular" font-size="28.0" fill="#000000" transform="matrix(1.00, 0.00, -0.00, -1.00, 26.4, 3.0)">t</text><text xml:space="preserve" font-family="EurekaSans-Regular" font-size="28.0" fill="#000000" transform="matrix(1.00, 0.00, -0.00, -1.00, 35.7, 3.0)">i</text><text xml:space="preserve" font-family="EurekaSans-Regular" font-size="28.0" fill="#000000" transform="matrix(1.00, 0.00, -0.00, -1.00, 42.6, 3.0)">r</text><text xml:space="preserve" font-family="EurekaSans-Regular" font-size="28.0" fill="#000000" transform="matrix(1.00, 0.00, -0.00, -1.00, 50.9, 3.0)">e</text><text xml:space="preserve" font-family="EurekaSans-Regular" font-size="28.0" fill="#000000" transform="matrix(1.00, 0.00, -0.00, -1.00, 62.2, 3.0)"> </text><text xml:space="preserve" font-family="EurekaSans-Regular" font-size="28.0" fill="#000000" transform="matrix(1.00, 0.00, -0.00, -1.00, 68.9, 3.0)">e</text><text xml:space="preserve" font-family="EurekaSans-Regular" font-size="28.0" fill="#000000" transform="matrix(1.00, 0.00, -0.00, -1.00, 80.2, 3.0)">v</text><text xml:space="preserve" font-family="EurekaSans-Regular" font-size="28.0" fill="#000000" transform="matrix(1.00, 0.00, -0.00, -1.00, 91.7, 3.0)">e</text><text xml:space="preserve" font-family="EurekaSans-Regular" font-size="28.0" fill="#000000" transform="matrix(1.00, 0.00, -0.00, -1.00, 103.0, 3.0)">n</text><text xml:space="preserve" font-family="EurekaSans-Regular" font-size="28.0" fill="#000000" transform="matrix(1.00, 0.00, -0.00, -1.00, 116.2, 3.0)">t</text><text xml:space="preserve" font-family="EurekaSans-Regular" font-size="28.0" fill="#000000" transform="matrix(1.00, 0.00, -0.00, -1.00, 125.5, 3.0)">s</text><text xml:space="preserve" font-family="EurekaSans-Regular" font-size="28.0" fill="#000000" transform="matrix(1.00, 0.00, -0.00, -1.00, 134.8, 3.0)">.</text></g></svg>