<?xml version="1.0" encoding="UTF-8" standalone="no"?><svg xmlns="http://www.w3.org/2000/svg" xmlns:xlink="http://www.w3.org/1999/xlink" clip-rule="evenodd" stroke-miterlimit="4.00" viewBox="0 0 373 29"><desc>SVG generated by Keynote</desc><defs></defs><g transform="matrix(1.00, 0.00, -0.00, -1.00, 0.0, 29.0)"><text xml:space="preserve" font-family="EurekaSans-Regular" font-size="28.0" fill="#000000" transform="matrix(1.00, 0.00, -0.00, -1.00, 2.0, 9.0)">s</text><text xml:space="preserve" font-family="EurekaSans-Regular" font-size="28.0" fill="#000000" transform="matrix(1.00, 0.00, -0.00, -1.00, 11.4, 9.0)">p</text><text xml:space="preserve" font-family="EurekaSans-Regular" font-size="28.0" fill="#000000" transform="matrix(1.00, 0.00, -0.00, -1.00, 23.8, 9.0)">e</text><text xml:space="preserve" font-family="EurekaSans-Regular" font-size="28.0" fill="#000000" transform="matrix(1.00, 0.00, -0.00, -1.00, 35.1, 9.0)">a</text><text xml:space="preserve" font-family="EurekaSans-Regular" font-size="28.0" fill="#000000" transform="matrix(1.00, 0.00, -0.00, -1.00, 46.3, 9.0)">k</text><text xml:space="preserve" font-family="EurekaSans-Regular" font-size="28.0" fill="#000000" transform="matrix(1.00, 0.00, -0.00, -1.00, 57.8, 9.0)">e</text><text xml:space="preserve" font-family="EurekaSans-Regular" font-size="28.0" fill="#000000" transform="matrix(1.00, 0.00, -0.00, -1.00, 69.1, 9.0)">r</text><text xml:space="preserve" font-family="EurekaSans-Regular" font-size="28.0" fill="#000000" transform="matrix(1.00, 0.00, -0.00, -1.00, 77.4, 9.0)">,</text><text xml:space="preserve" font-family="EurekaSans-Regular" font-size="28.0" fill="#000000" transform="matrix(1.00, 0.00, -0.00, -1.00, 84.9, 9.0)"> </text><text xml:space="preserve" font-family="EurekaSans-Regular" font-size="28.0" fill="#000000" transform="matrix(1.00, 0.00, -0.00, -1.00, 91.7, 9.0)">e</text><text xml:space="preserve" font-family="EurekaSans-Regular" font-size="28.0" fill="#000000" transform="matrix(1.00, 0.00, -0.00, -1.00, 103.0, 9.0)">a</text><text xml:space="preserve" font-family="EurekaSans-Regular" font-size="28.0" fill="#000000" transform="matrix(1.00, 0.00, -0.00, -1.00, 114.2, 9.0)">c</text><text xml:space="preserve" font-family="EurekaSans-Regular" font-size="28.0" fill="#000000" transform="matrix(1.00, 0.00, -0.00, -1.00, 124.7, 9.0)">h</text><text xml:space="preserve" font-family="EurekaSans-Regular" font-size="28.0" fill="#000000" transform="matrix(1.00, 0.00, -0.00, -1.00, 137.9, 9.0)"> </text><text xml:space="preserve" font-family="EurekaSans-Regular" font-size="28.0" fill="#000000" transform="matrix(1.00, 0.00, -0.00, -1.00, 144.6, 9.0)">d</text><text xml:space="preserve" font-family="EurekaSans-Regular" font-size="28.0" fill="#000000" transform="matrix(1.00, 0.00, -0.00, -1.00, 157.3, 9.0)">i</text><text xml:space="preserve" font-family="EurekaSans-Regular" font-size="28.0" fill="#000000" transform="matrix(1.00, 0.00, -0.00, -1.00, 164.1, 9.0)">s</text><text xml:space="preserve" font-family="EurekaSans-Regular" font-size="28.0" fill="#000000" transform="matrix(1.00, 0.00, -0.00, -1.00, 173.4, 9.0)">h</text><text xml:space="preserve" font-family="EurekaSans-Regular" font-size="28.0" fill="#000000" transform="matrix(1.00, 0.00, -0.00, -1.00, 186.6, 9.0)"> </text><text xml:space="preserve" font-family="EurekaSans-Regular" font-size="28.0" fill="#000000" transform="matrix(1.00, 0.00, -0.00, -1.00, 193.4, 9.0)">a</text><text xml:space="preserve" font-family="EurekaSans-Regular" font-size="28.0" fill="#000000" transform="matrix(1.00, 0.00, -0.00, -1.00, 204.6, 9.0)">c</text><text xml:space="preserve" font-family="EurekaSans-Regular" font-size="28.0" fill="#000000" transform="matrix(1.00, 0.00, -0.00, -1.00, 215.1, 9.0)">c</text><text xml:space="preserve" font-family="EurekaSans-Regular" font-size="28.0" fill="#000000" transform="matrix(1.00, 0.00, -0.00, -1.00, 225.6, 9.0)">o</text><text xml:space="preserve" font-family="EurekaSans-Regular" font-size="28.0" fill="#000000" transform="matrix(1.00, 0.00, -0.00, -1.00, 238.0, 9.0)">m</text><text xml:space="preserve" font-family="EurekaSans-Regular" font-size="28.0" fill="#000000" transform="matrix(1.00, 0.00, -0.00, -1.00, 257.1, 9.0)">p</text><text xml:space="preserve" font-family="EurekaSans-Regular" font-size="28.0" fill="#000000" transform="matrix(1.00, 0.00, -0.00, -1.00, 269.6, 9.0)">a</text><text xml:space="preserve" font-family="EurekaSans-Regular" font-size="28.0" fill="#000000" transform="matrix(1.00, 0.00, -0.00, -1.00, 280.8, 9.0)">n</text><text xml:space="preserve" font-family="EurekaSans-Regular" font-size="28.0" fill="#000000" transform="matrix(1.00, 0.00, -0.00, -1.00, 294.0, 9.0)">i</text><text xml:space="preserve" font-family="EurekaSans-Regular" font-size="28.0" fill="#000000" transform="matrix(1.00, 0.00, -0.00, -1.00, 300.8, 9.0)">e</text><text xml:space="preserve" font-family="EurekaSans-Regular" font-size="28.0" fill="#000000" transform="matrix(1.00, 0.00, -0.00, -1.00, 312.1, 9.0)">d</text><text xml:space="preserve" font-family="EurekaSans-Regular" font-size="28.0" fill="#000000" transform="matrix(1.00, 0.00, -0.00, -1.00, 324.7, 9.0)"> </text><text xml:space="preserve" font-family="EurekaSans-Regular" font-size="28.0" fill="#000000" transform="matrix(1.00, 0.00, -0.00, -1.00, 331.5, 9.0)">b</text><text xml:space="preserve" font-family="EurekaSans-Regular" font-size="28.0" fill="#000000" transform="matrix(1.00, 0.00, -0.00, -1.00, 344.0, 9.0)">y</text><text xml:space="preserve" font-family="EurekaSans-Regular" font-size="28.0" fill="#000000" transform="matrix(1.00, 0.00, -0.00, -1.00, 355.7, 9.0)"> </text><text xml:space="preserve" font-family="EurekaSans-Regular" font-size="28.0" fill="#000000" transform="matrix(1.00, 0.00, -0.00, -1.00, 362.5, 9.0)">a</text></g></svg>