<?xml version="1.0" encoding="UTF-8" standalone="no"?><svg xmlns="http://www.w3.org/2000/svg" xmlns:xlink="http://www.w3.org/1999/xlink" clip-rule="evenodd" stroke-miterlimit="4.00" viewBox="0 0 462 30"><desc>SVG generated by Keynote</desc><defs></defs><g transform="matrix(1.00, 0.00, -0.00, -1.00, 0.0, 30.0)"><text xml:space="preserve" font-family="EurekaSans-Regular" font-size="28.0" fill="#000000" transform="matrix(1.00, 0.00, -0.00, -1.00, 1.0, 9.0)">S</text><text xml:space="preserve" font-family="EurekaSans-Regular" font-size="28.0" fill="#000000" transform="matrix(1.00, 0.00, -0.00, -1.00, 13.2, 9.0)">n</text><text xml:space="preserve" font-family="EurekaSans-Regular" font-size="28.0" fill="#000000" transform="matrix(1.00, 0.00, -0.00, -1.00, 26.4, 9.0)">a</text><text xml:space="preserve" font-family="EurekaSans-Regular" font-size="28.0" fill="#000000" transform="matrix(1.00, 0.00, -0.00, -1.00, 37.6, 9.0)">c</text><text xml:space="preserve" font-family="EurekaSans-Regular" font-size="28.0" fill="#000000" transform="matrix(1.00, 0.00, -0.00, -1.00, 48.1, 9.0)">k</text><text xml:space="preserve" font-family="EurekaSans-Regular" font-size="28.0" fill="#000000" transform="matrix(1.00, 0.00, -0.00, -1.00, 59.6, 9.0)">s</text><text xml:space="preserve" font-family="EurekaSans-Regular" font-size="28.0" fill="#000000" transform="matrix(1.00, 0.00, -0.00, -1.00, 68.9, 9.0)"> </text><text xml:space="preserve" font-family="EurekaSans-Regular" font-size="28.0" fill="#000000" transform="matrix(1.00, 0.00, -0.00, -1.00, 75.7, 9.0)">w</text><text xml:space="preserve" font-family="EurekaSans-Regular" font-size="28.0" fill="#000000" transform="matrix(1.00, 0.00, -0.00, -1.00, 93.3, 9.0)">e</text><text xml:space="preserve" font-family="EurekaSans-Regular" font-size="28.0" fill="#000000" transform="matrix(1.00, 0.00, -0.00, -1.00, 104.6, 9.0)">r</text><text xml:space="preserve" font-family="EurekaSans-Regular" font-size="28.0" fill="#000000" transform="matrix(1.00, 0.00, -0.00, -1.00, 112.9, 9.0)">e</text><text xml:space="preserve" font-family="EurekaSans-Regular" font-size="28.0" fill="#000000" transform="matrix(1.00, 0.00, -0.00, -1.00, 124.2, 9.0)"> </text><text xml:space="preserve" font-family="EurekaSans-Regular" font-size="28.0" fill="#000000" transform="matrix(1.00, 0.00, -0.00, -1.00, 131.0, 9.0)">c</text><text xml:space="preserve" font-family="EurekaSans-Regular" font-size="28.0" fill="#000000" transform="matrix(1.00, 0.00, -0.00, -1.00, 141.5, 9.0)">a</text><text xml:space="preserve" font-family="EurekaSans-Regular" font-size="28.0" fill="#000000" transform="matrix(1.00, 0.00, -0.00, -1.00, 152.7, 9.0)">r</text><text xml:space="preserve" font-family="EurekaSans-Regular" font-size="28.0" fill="#000000" transform="matrix(1.00, 0.00, -0.00, -1.00, 161.0, 9.0)">r</text><text xml:space="preserve" font-family="EurekaSans-Regular" font-size="28.0" fill="#000000" transform="matrix(1.00, 0.00, -0.00, -1.00, 169.4, 9.0)">i</text><text xml:space="preserve" font-family="EurekaSans-Regular" font-size="28.0" fill="#000000" transform="matrix(1.00, 0.00, -0.00, -1.00, 176.2, 9.0)">e</text><text xml:space="preserve" font-family="EurekaSans-Regular" font-size="28.0" fill="#000000" transform="matrix(1.00, 0.00, -0.00, -1.00, 187.5, 9.0)">d</text><text xml:space="preserve" font-family="EurekaSans-Regular" font-size="28.0" fill="#000000" transform="matrix(1.00, 0.00, -0.00, -1.00, 200.1, 9.0)"> </text><text xml:space="preserve" font-family="EurekaSans-Regular" font-size="28.0" fill="#000000" transform="matrix(1.00, 0.00, -0.00, -1.00, 206.9, 9.0)">t</text><text xml:space="preserve" font-family="EurekaSans-Regular" font-size="28.0" fill="#000000" transform="matrix(1.00, 0.00, -0.00, -1.00, 216.2, 9.0)">h</text><text xml:space="preserve" font-family="EurekaSans-Regular" font-size="28.0" fill="#000000" transform="matrix(1.00, 0.00, -0.00, -1.00, 229.3, 9.0)">r</text><text xml:space="preserve" font-family="EurekaSans-Regular" font-size="28.0" fill="#000000" transform="matrix(1.00, 0.00, -0.00, -1.00, 237.7, 9.0)">o</text><text xml:space="preserve" font-family="EurekaSans-Regular" font-size="28.0" fill="#000000" transform="matrix(1.00, 0.00, -0.00, -1.00, 250.0, 9.0)">u</text><text xml:space="preserve" font-family="EurekaSans-Regular" font-size="28.0" fill="#000000" transform="matrix(1.00, 0.00, -0.00, -1.00, 262.8, 9.0)">g</text><text xml:space="preserve" font-family="EurekaSans-Regular" font-size="28.0" fill="#000000" transform="matrix(1.00, 0.00, -0.00, -1.00, 275.1, 9.0)">h</text><text xml:space="preserve" font-family="EurekaSans-Regular" font-size="28.0" fill="#000000" transform="matrix(1.00, 0.00, -0.00, -1.00, 288.3, 9.0)">o</text><text xml:space="preserve" font-family="EurekaSans-Regular" font-size="28.0" fill="#000000" transform="matrix(1.00, 0.00, -0.00, -1.00, 300.6, 9.0)">u</text><text xml:space="preserve" font-family="EurekaSans-Regular" font-size="28.0" fill="#000000" transform="matrix(1.00, 0.00, -0.00, -1.00, 313.4, 9.0)">t</text><text xml:space="preserve" font-family="EurekaSans-Regular" font-size="28.0" fill="#000000" transform="matrix(1.00, 0.00, -0.00, -1.00, 322.7, 9.0)"> </text><text xml:space="preserve" font-family="EurekaSans-Regular" font-size="28.0" fill="#000000" transform="matrix(1.00, 0.00, -0.00, -1.00, 329.5, 9.0)">t</text><text xml:space="preserve" font-family="EurekaSans-Regular" font-size="28.0" fill="#000000" transform="matrix(1.00, 0.00, -0.00, -1.00, 338.8, 9.0)">h</text><text xml:space="preserve" font-family="EurekaSans-Regular" font-size="28.0" fill="#000000" transform="matrix(1.00, 0.00, -0.00, -1.00, 352.0, 9.0)">e</text><text xml:space="preserve" font-family="EurekaSans-Regular" font-size="28.0" fill="#000000" transform="matrix(1.00, 0.00, -0.00, -1.00, 363.2, 9.0)"> </text><text xml:space="preserve" font-family="EurekaSans-Regular" font-size="28.0" fill="#000000" transform="matrix(1.00, 0.00, -0.00, -1.00, 370.0, 9.0)">v</text><text xml:space="preserve" font-family="EurekaSans-Regular" font-size="28.0" fill="#000000" transform="matrix(1.00, 0.00, -0.00, -1.00, 381.5, 9.0)">e</text><text xml:space="preserve" font-family="EurekaSans-Regular" font-size="28.0" fill="#000000" transform="matrix(1.00, 0.00, -0.00, -1.00, 392.8, 9.0)">n</text><text xml:space="preserve" font-family="EurekaSans-Regular" font-size="28.0" fill="#000000" transform="matrix(1.00, 0.00, -0.00, -1.00, 406.0, 9.0)">u</text><text xml:space="preserve" font-family="EurekaSans-Regular" font-size="28.0" fill="#000000" transform="matrix(1.00, 0.00, -0.00, -1.00, 418.8, 9.0)">e</text><text xml:space="preserve" font-family="EurekaSans-Regular" font-size="28.0" fill="#000000" transform="matrix(1.00, 0.00, -0.00, -1.00, 430.0, 9.0)"> </text><text xml:space="preserve" font-family="EurekaSans-Regular" font-size="28.0" fill="#000000" transform="matrix(1.00, 0.00, -0.00, -1.00, 436.8, 9.0)">o</text><text xml:space="preserve" font-family="EurekaSans-Regular" font-size="28.0" fill="#000000" transform="matrix(1.00, 0.00, -0.00, -1.00, 449.2, 9.0)">n</text></g></svg>