<?xml version="1.0" encoding="UTF-8" standalone="no"?><svg xmlns="http://www.w3.org/2000/svg" xmlns:xlink="http://www.w3.org/1999/xlink" clip-rule="evenodd" stroke-miterlimit="4.00" viewBox="0 0 243 94"><desc>SVG generated by Keynote</desc><defs></defs><g transform="matrix(1.00, 0.00, -0.00, -1.00, 0.0, 94.0)"><g><clipPath id="clip-26"><path d="M 1.0 92.0 L 241.0 92.0 L 241.0 1.0 L 1.0 1.0 Z M 1.4 92.3 "></path></clipPath><g clip-path="url(#clip-26)"><g><clipPath id="clip-27"><path d="M 241.0 92.3 L 206.0 92.0 L 206.0 73.8 L 206.0 55.0 L 223.7 55.0 L 241.0 55.0 L 241.0 73.8 L 241.0 92.3 Z M 189.0 92.3 L 171.0 92.0 L 171.0 86.0 L 171.0 80.0 L 156.8 79.0 L 143.0 79.0 L 143.0 40.1 L 143.0 1.0 L 189.0 1.0 L 189.0 46.7 L 189.0 92.3 Z M 99.0 92.1 C 92.8 92.1 86.6 92.1 81.0 92.1 L 81.0 46.7 L 81.0 1.0 L 126.0 1.0 L 126.0 40.1 L 126.0 79.0 L 113.0 79.0 L 100.0 80.0 L 99.0 86.0 L 99.0 92.1 Z M 64.0 92.0 C 39.2 91.9 21.8 91.7 22.5 91.6 C 31.4 89.4 39.2 83.0 41.7 75.7 C 42.6 72.9 43.1 69.2 43.1 65.2 C 42.8 46.7 28.9 35.1 7.0 35.0 L 1.0 35.0 L 1.0 18.0 L 1.0 1.0 L 25.0 1.0 L 64.0 1.0 L 64.0 46.7 L 64.0 92.0 Z M 1.4 80.0 L 1.0 64.0 L 1.0 48.0 L 7.9 48.0 C 21.0 48.0 27.2 54.4 26.0 66.9 C 25.1 76.8 21.0 80.0 8.7 80.0 L 1.4 80.0 Z M 205.9 41.0 L 206.0 21.3 L 206.0 1.0 L 241.0 1.0 L 241.0 21.3 L 241.0 41.0 L 223.7 41.0 L 205.9 41.0 Z M 205.9 41.4 "></path></clipPath><g clip-path="url(#clip-27)"><image xlink:href="../../615F7CD4-E262-41F7-8138-806EC6AB1FAB/assets/CE46EE896330C64C49F9D208408BEC05.png" width="396.00" height="133.00" transform="matrix(0.68, 0.00, -0.00, -0.68, -14.0, 92.0)"></image></g></g></g></g></g></svg>