<?xml version="1.0" encoding="UTF-8" standalone="no"?><svg xmlns="http://www.w3.org/2000/svg" xmlns:xlink="http://www.w3.org/1999/xlink" clip-rule="evenodd" stroke-miterlimit="4.00" viewBox="0 0 190 19"><desc>SVG generated by Keynote</desc><defs></defs><g transform="matrix(1.00, 0.00, -0.00, -1.00, 0.0, 19.0)"><text xml:space="preserve" font-family="EurekaSans-Light" font-size="36.0" fill="#6DA2C9" transform="matrix(1.00, 0.00, -0.00, -1.00, 1.0, 3.0)">1</text><text xml:space="preserve" font-family="EurekaSans-Light" font-size="36.0" fill="#6DA2C9" transform="matrix(1.00, 0.00, -0.00, -1.00, 13.2, 3.0)">:</text><text xml:space="preserve" font-family="EurekaSans-Light" font-size="36.0" fill="#6DA2C9" transform="matrix(1.00, 0.00, -0.00, -1.00, 22.7, 3.0)"> </text><text xml:space="preserve" font-family="EurekaSans-RegularSC" font-size="36.0" fill="#000000" transform="matrix(1.00, 0.00, -0.00, -1.00, 31.4, 3.0)">m</text><text xml:space="preserve" font-family="EurekaSans-RegularSC" font-size="36.0" fill="#000000" transform="matrix(1.00, 0.00, -0.00, -1.00, 54.6, 3.0)">e</text><text xml:space="preserve" font-family="EurekaSans-RegularSC" font-size="36.0" fill="#000000" transform="matrix(1.00, 0.00, -0.00, -1.00, 70.2, 3.0)">t</text><text xml:space="preserve" font-family="EurekaSans-RegularSC" font-size="36.0" fill="#000000" transform="matrix(1.00, 0.00, -0.00, -1.00, 84.4, 3.0)">r</text><text xml:space="preserve" font-family="EurekaSans-RegularSC" font-size="36.0" fill="#000000" transform="matrix(1.00, 0.00, -0.00, -1.00, 100.6, 3.0)">o</text><text xml:space="preserve" font-family="EurekaSans-RegularSC" font-size="36.0" fill="#000000" transform="matrix(1.00, 0.00, -0.00, -1.00, 119.1, 3.0)">p</text><text xml:space="preserve" font-family="EurekaSans-RegularSC" font-size="36.0" fill="#000000" transform="matrix(1.00, 0.00, -0.00, -1.00, 134.2, 3.0)">o</text><text xml:space="preserve" font-family="EurekaSans-RegularSC" font-size="36.0" fill="#000000" transform="matrix(1.00, 0.00, -0.00, -1.00, 152.6, 3.0)">l</text><text xml:space="preserve" font-family="EurekaSans-RegularSC" font-size="36.0" fill="#000000" transform="matrix(1.00, 0.00, -0.00, -1.00, 166.0, 3.0)">i</text><text xml:space="preserve" font-family="EurekaSans-RegularSC" font-size="36.0" fill="#000000" transform="matrix(1.00, 0.00, -0.00, -1.00, 175.1, 3.0)">s</text></g></svg>