<?xml version="1.0" encoding="UTF-8" standalone="no"?><svg xmlns="http://www.w3.org/2000/svg" xmlns:xlink="http://www.w3.org/1999/xlink" clip-rule="evenodd" stroke-miterlimit="4.00" viewBox="0 0 1024 768"><desc>SVG generated by Keynote</desc><defs></defs><g transform="matrix(1.00, 0.00, -0.00, -1.00, 0.0, 768.0)"><path d="M 0.0 768.0 L 1024.0 768.0 L 1024.0 0.0 L 0.0 0.0 Z M 0.0 768.0 " fill="#FEFFFF"></path><g><clipPath id="clip-16"><path d="M 649.0 769.0 L 1029.0 769.0 L 1029.0 -1.0 L 649.0 -1.0 Z M 649.4 768.6 "></path></clipPath><g clip-path="url(#clip-16)"><image xlink:href="DC7EDEB2845BF54D2E91C6CC7E68EC23.jpeg" width="1150.00" height="768.00" transform="matrix(1.00, 0.00, -0.00, -1.00, 260.0, 769.0)"></image></g></g><image xlink:href="A45BA16FCD33E6F4819294CE9296A6BB.png" width="525.00" height="399.00" transform="matrix(1.00, 0.00, -0.00, -1.00, 98.0, 632.0)"></image><g><clipPath id="clip-17"><path d="M 100.0 668.0 L 340.0 668.0 L 340.0 577.0 L 100.0 577.0 Z M 100.4 668.3 "></path></clipPath><g clip-path="url(#clip-17)"><g><clipPath id="clip-18"><path d="M 340.0 668.3 L 305.0 668.0 L 305.0 649.8 L 305.0 631.0 L 322.7 631.0 L 340.0 631.0 L 340.0 649.8 L 340.0 668.3 Z M 288.0 668.3 L 270.0 668.0 L 270.0 662.0 L 270.0 656.0 L 255.8 655.0 L 242.0 655.0 L 242.0 616.1 L 242.0 577.0 L 288.0 577.0 L 288.0 622.7 L 288.0 668.3 Z M 198.0 668.1 C 191.8 668.1 185.6 668.1 180.0 668.1 L 180.0 622.7 L 180.0 577.0 L 225.0 577.0 L 225.0 616.1 L 225.0 655.0 L 212.0 655.0 L 199.0 656.0 L 198.0 662.0 L 198.0 668.1 Z M 163.0 668.0 C 138.2 667.9 120.8 667.7 121.5 667.6 C 130.4 665.4 138.2 659.0 140.7 651.7 C 141.6 648.9 142.1 645.2 142.1 641.2 C 141.8 622.7 127.9 611.1 106.0 611.0 L 100.0 611.0 L 100.0 594.0 L 100.0 577.0 L 124.0 577.0 L 163.0 577.0 L 163.0 622.7 L 163.0 668.0 Z M 100.4 656.0 L 100.0 640.0 L 100.0 624.0 L 106.9 624.0 C 120.0 624.0 126.2 630.4 125.0 642.9 C 124.1 652.8 120.0 656.0 107.7 656.0 L 100.4 656.0 Z M 304.9 617.0 L 305.0 597.3 L 305.0 577.0 L 340.0 577.0 L 340.0 597.3 L 340.0 617.0 L 322.7 617.0 L 304.9 617.0 Z M 304.9 617.4 "></path></clipPath><g clip-path="url(#clip-18)"><image xlink:href="../../615F7CD4-E262-41F7-8138-806EC6AB1FAB/assets/CE46EE896330C64C49F9D208408BEC05.png" width="396.00" height="133.00" transform="matrix(0.68, 0.00, -0.00, -0.68, 85.0, 668.0)"></image></g></g></g></g><g><clipPath id="clip-19"><path d="M 255.0 243.0 L 378.0 243.0 L 378.0 189.0 L 255.0 189.0 Z M 255.2 242.8 "></path></clipPath><g clip-path="url(#clip-19)"><image xlink:href="8D493E3AB8CE9CCCD53706AF0A84F827.png" width="144.00" height="54.00" transform="matrix(1.00, 0.00, -0.00, -1.00, 255.0, 243.0)"></image></g></g><image xlink:href="184C126E40806361BC27C02109052FE6.png" width="212.00" height="125.00" transform="matrix(1.00, 0.00, -0.00, -1.00, 226.0, 202.0)"></image></g></svg>