<?xml version="1.0" encoding="UTF-8" standalone="no"?><svg xmlns="http://www.w3.org/2000/svg" xmlns:xlink="http://www.w3.org/1999/xlink" clip-rule="evenodd" stroke-miterlimit="4.00" viewBox="0 0 346 18"><desc>SVG generated by Keynote</desc><defs></defs><g transform="matrix(1.00, 0.00, -0.00, -1.00, 0.0, 18.0)"><text xml:space="preserve" font-family="EurekaSans-RegularSC" font-size="33.0" fill="#000000" transform="matrix(1.00, 0.00, -0.00, -1.00, 0.0, 2.0)">c</text><text xml:space="preserve" font-family="EurekaSans-RegularSC" font-size="33.0" fill="#000000" transform="matrix(1.00, 0.00, -0.00, -1.00, 14.4, 2.0)">r</text><text xml:space="preserve" font-family="EurekaSans-RegularSC" font-size="33.0" fill="#000000" transform="matrix(1.00, 0.00, -0.00, -1.00, 29.2, 2.0)">e</text><text xml:space="preserve" font-family="EurekaSans-RegularSC" font-size="33.0" fill="#000000" transform="matrix(1.00, 0.00, -0.00, -1.00, 43.5, 2.0)">a</text><text xml:space="preserve" font-family="EurekaSans-RegularSC" font-size="33.0" fill="#000000" transform="matrix(1.00, 0.00, -0.00, -1.00, 58.1, 2.0)">t</text><text xml:space="preserve" font-family="EurekaSans-RegularSC" font-size="33.0" fill="#000000" transform="matrix(1.00, 0.00, -0.00, -1.00, 71.1, 2.0)">i</text><text xml:space="preserve" font-family="EurekaSans-RegularSC" font-size="33.0" fill="#000000" transform="matrix(1.00, 0.00, -0.00, -1.00, 79.5, 2.0)">v</text><text xml:space="preserve" font-family="EurekaSans-RegularSC" font-size="33.0" fill="#000000" transform="matrix(1.00, 0.00, -0.00, -1.00, 94.1, 2.0)">e</text><text xml:space="preserve" font-family="EurekaSans-RegularSC" font-size="33.0" fill="#000000" transform="matrix(1.00, 0.00, -0.00, -1.00, 108.4, 2.0)"> </text><text xml:space="preserve" font-family="EurekaSans-RegularSC" font-size="33.0" fill="#000000" transform="matrix(1.00, 0.00, -0.00, -1.00, 116.4, 2.0)">e</text><text xml:space="preserve" font-family="EurekaSans-RegularSC" font-size="33.0" fill="#000000" transform="matrix(1.00, 0.00, -0.00, -1.00, 130.7, 2.0)">v</text><text xml:space="preserve" font-family="EurekaSans-RegularSC" font-size="33.0" fill="#000000" transform="matrix(1.00, 0.00, -0.00, -1.00, 145.3, 2.0)">e</text><text xml:space="preserve" font-family="EurekaSans-RegularSC" font-size="33.0" fill="#000000" transform="matrix(1.00, 0.00, -0.00, -1.00, 159.6, 2.0)">n</text><text xml:space="preserve" font-family="EurekaSans-RegularSC" font-size="33.0" fill="#000000" transform="matrix(1.00, 0.00, -0.00, -1.00, 177.1, 2.0)">t</text><text xml:space="preserve" font-family="EurekaSans-RegularSC" font-size="33.0" fill="#000000" transform="matrix(1.00, 0.00, -0.00, -1.00, 190.2, 2.0)"> </text><text xml:space="preserve" font-family="EurekaSans-RegularSC" font-size="33.0" fill="#000000" transform="matrix(1.00, 0.00, -0.00, -1.00, 198.2, 2.0)">p</text><text xml:space="preserve" font-family="EurekaSans-RegularSC" font-size="33.0" fill="#000000" transform="matrix(1.00, 0.00, -0.00, -1.00, 212.0, 2.0)">r</text><text xml:space="preserve" font-family="EurekaSans-RegularSC" font-size="33.0" fill="#000000" transform="matrix(1.00, 0.00, -0.00, -1.00, 226.8, 2.0)">o</text><text xml:space="preserve" font-family="EurekaSans-RegularSC" font-size="33.0" fill="#000000" transform="matrix(1.00, 0.00, -0.00, -1.00, 243.7, 2.0)">d</text><text xml:space="preserve" font-family="EurekaSans-RegularSC" font-size="33.0" fill="#000000" transform="matrix(1.00, 0.00, -0.00, -1.00, 260.3, 2.0)">u</text><text xml:space="preserve" font-family="EurekaSans-RegularSC" font-size="33.0" fill="#000000" transform="matrix(1.00, 0.00, -0.00, -1.00, 277.3, 2.0)">c</text><text xml:space="preserve" font-family="EurekaSans-RegularSC" font-size="33.0" fill="#000000" transform="matrix(1.00, 0.00, -0.00, -1.00, 291.7, 2.0)">t</text><text xml:space="preserve" font-family="EurekaSans-RegularSC" font-size="33.0" fill="#000000" transform="matrix(1.00, 0.00, -0.00, -1.00, 304.7, 2.0)">i</text><text xml:space="preserve" font-family="EurekaSans-RegularSC" font-size="33.0" fill="#000000" transform="matrix(1.00, 0.00, -0.00, -1.00, 313.1, 2.0)">o</text><text xml:space="preserve" font-family="EurekaSans-RegularSC" font-size="33.0" fill="#000000" transform="matrix(1.00, 0.00, -0.00, -1.00, 330.0, 2.0)">n</text></g></svg>