<?xml version="1.0" encoding="UTF-8" standalone="no"?><svg xmlns="http://www.w3.org/2000/svg" xmlns:xlink="http://www.w3.org/1999/xlink" clip-rule="evenodd" stroke-miterlimit="4.00" viewBox="0 0 1024 768"><desc>SVG generated by Keynote</desc><defs></defs><g transform="matrix(1.00, 0.00, -0.00, -1.00, 0.0, 768.0)"><path d="M 0.0 768.0 L 1024.0 768.0 L 1024.0 0.0 L 0.0 0.0 Z M 0.0 768.0 " fill="#FEFFFF"></path><g><clipPath id="clip-61"><path d="M 648.0 768.0 L 1025.0 768.0 L 1025.0 0.0 L 648.0 0.0 Z M 648.3 767.6 "></path></clipPath><g clip-path="url(#clip-61)"><image xlink:href="../../0F7FEF72-A244-44B1-984A-69AED1EB124F/assets/5AD402FF51573BD05F9663BC89DF682A.png" width="1000.00" height="667.00" transform="matrix(1.15, 0.00, -0.00, -1.15, 244.0, 768.0)"></image></g></g><g><clipPath id="clip-62"><path d="M 101.0 66.0 L 183.0 66.0 L 183.0 35.0 L 101.0 35.0 Z M 101.1 66.4 "></path></clipPath><g clip-path="url(#clip-62)"><g><clipPath id="clip-63"><path d="M 183.0 66.4 L 171.0 66.0 L 171.0 60.1 L 171.0 54.0 L 177.2 54.0 L 183.0 54.0 L 183.0 60.1 L 183.0 66.4 Z M 165.0 66.4 L 159.0 66.0 L 159.0 64.2 L 159.0 62.0 L 154.3 62.0 L 150.0 62.0 L 150.0 48.5 L 150.0 35.0 L 165.0 35.0 L 165.0 50.8 L 165.0 66.4 Z M 135.0 66.3 C 132.4 66.3 129.9 66.3 128.0 66.3 L 128.0 50.8 L 128.0 35.0 L 144.0 35.0 L 144.0 48.5 L 144.0 62.0 L 139.3 62.0 L 135.0 62.0 L 135.0 64.2 L 135.0 66.3 Z M 123.0 66.3 C 114.0 66.3 108.1 66.2 108.3 66.1 C 111.4 65.4 114.0 63.2 114.9 60.7 C 115.2 59.8 115.4 58.5 115.4 57.1 C 115.3 50.8 110.5 47.0 103.0 47.0 L 101.0 47.0 L 101.0 40.9 L 101.0 35.0 L 109.2 35.0 L 123.0 35.0 L 123.0 50.8 L 123.0 66.3 Z M 101.1 62.0 L 101.0 56.7 L 101.0 51.0 L 103.3 51.0 C 107.8 51.0 109.9 53.4 109.5 57.7 C 109.2 61.1 107.8 62.0 103.6 62.0 L 101.1 62.0 Z M 171.1 49.0 L 171.0 42.1 L 171.0 35.0 L 183.0 35.0 L 183.0 42.1 L 183.0 49.0 L 177.2 49.0 L 171.1 49.0 Z M 171.1 49.0 "></path></clipPath><g clip-path="url(#clip-63)"><image xlink:href="../../615F7CD4-E262-41F7-8138-806EC6AB1FAB/assets/CE46EE896330C64C49F9D208408BEC05.png" width="396.00" height="133.00" transform="matrix(0.23, 0.00, -0.00, -0.23, 96.0, 66.0)"></image></g></g></g></g><image xlink:href="../../0F7FEF72-A244-44B1-984A-69AED1EB124F/assets/D70846BA50EEA627DD2F36337439CA58.png" width="550.00" height="444.00" transform="matrix(1.00, 0.00, -0.00, -1.00, 62.0, 673.0)"></image></g></svg>