<?xml version="1.0" encoding="UTF-8" standalone="no"?><svg xmlns="http://www.w3.org/2000/svg" xmlns:xlink="http://www.w3.org/1999/xlink" clip-rule="evenodd" stroke-miterlimit="4.00" viewBox="0 0 85 34"><desc>SVG generated by Keynote</desc><defs></defs><g transform="matrix(1.00, 0.00, -0.00, -1.00, 0.0, 34.0)"><g><clipPath id="clip-54"><path d="M 1.0 32.0 L 83.0 32.0 L 83.0 1.0 L 1.0 1.0 Z M 1.1 32.4 "></path></clipPath><g clip-path="url(#clip-54)"><g><clipPath id="clip-55"><path d="M 83.0 32.4 L 71.0 32.0 L 71.0 26.1 L 71.0 20.0 L 77.2 20.0 L 83.0 20.0 L 83.0 26.1 L 83.0 32.4 Z M 65.0 32.4 L 59.0 32.0 L 59.0 30.2 L 59.0 28.0 L 54.3 28.0 L 50.0 28.0 L 50.0 14.5 L 50.0 1.0 L 65.0 1.0 L 65.0 16.8 L 65.0 32.4 Z M 35.0 32.3 C 32.4 32.3 29.9 32.3 28.0 32.3 L 28.0 16.8 L 28.0 1.0 L 44.0 1.0 L 44.0 14.5 L 44.0 28.0 L 39.3 28.0 L 35.0 28.0 L 35.0 30.2 L 35.0 32.3 Z M 23.0 32.3 C 14.0 32.3 8.1 32.2 8.3 32.1 C 11.4 31.4 14.0 29.2 14.9 26.7 C 15.2 25.8 15.4 24.5 15.4 23.1 C 15.3 16.8 10.5 13.0 3.0 13.0 L 1.0 13.0 L 1.0 6.9 L 1.0 1.0 L 9.2 1.0 L 23.0 1.0 L 23.0 16.8 L 23.0 32.3 Z M 1.1 28.0 L 1.0 22.7 L 1.0 17.0 L 3.3 17.0 C 7.8 17.0 9.9 19.4 9.5 23.7 C 9.2 27.1 7.8 28.0 3.6 28.0 L 1.1 28.0 Z M 71.1 15.0 L 71.0 8.1 L 71.0 1.0 L 83.0 1.0 L 83.0 8.1 L 83.0 15.0 L 77.2 15.0 L 71.1 15.0 Z M 71.1 15.0 "></path></clipPath><g clip-path="url(#clip-55)"><image xlink:href="../../615F7CD4-E262-41F7-8138-806EC6AB1FAB/assets/CE46EE896330C64C49F9D208408BEC05.png" width="396.00" height="133.00" transform="matrix(0.23, 0.00, -0.00, -0.23, -4.0, 32.0)"></image></g></g></g></g></g></svg>