<?xml version="1.0" encoding="UTF-8" standalone="no"?><svg xmlns="http://www.w3.org/2000/svg" xmlns:xlink="http://www.w3.org/1999/xlink" clip-rule="evenodd" stroke-miterlimit="4.00" viewBox="0 0 360 19"><desc>SVG generated by Keynote</desc><defs></defs><g transform="matrix(1.00, 0.00, -0.00, -1.00, 0.0, 19.0)"><text xml:space="preserve" font-family="EurekaSans-Light" font-size="36.0" fill="#6DA2C9" transform="matrix(1.00, 0.00, -0.00, -1.00, 1.0, 3.0)">2</text><text xml:space="preserve" font-family="EurekaSans-Light" font-size="36.0" fill="#6DA2C9" transform="matrix(1.00, 0.00, -0.00, -1.00, 14.4, 3.0)">:</text><text xml:space="preserve" font-family="EurekaSans-Light" font-size="36.0" fill="#6DA2C9" transform="matrix(1.00, 0.00, -0.00, -1.00, 23.9, 3.0)"> </text><text xml:space="preserve" font-family="EurekaSans-RegularSC" font-size="36.0" fill="#000000" transform="matrix(1.00, 0.00, -0.00, -1.00, 32.6, 3.0)">p</text><text xml:space="preserve" font-family="EurekaSans-RegularSC" font-size="36.0" fill="#000000" transform="matrix(1.00, 0.00, -0.00, -1.00, 47.7, 3.0)">e</text><text xml:space="preserve" font-family="EurekaSans-RegularSC" font-size="36.0" fill="#000000" transform="matrix(1.00, 0.00, -0.00, -1.00, 63.2, 3.0)">n</text><text xml:space="preserve" font-family="EurekaSans-RegularSC" font-size="36.0" fill="#000000" transform="matrix(1.00, 0.00, -0.00, -1.00, 82.4, 3.0)">g</text><text xml:space="preserve" font-family="EurekaSans-RegularSC" font-size="36.0" fill="#000000" transform="matrix(1.00, 0.00, -0.00, -1.00, 98.9, 3.0)">u</text><text xml:space="preserve" font-family="EurekaSans-RegularSC" font-size="36.0" fill="#000000" transform="matrix(1.00, 0.00, -0.00, -1.00, 117.4, 3.0)">i</text><text xml:space="preserve" font-family="EurekaSans-RegularSC" font-size="36.0" fill="#000000" transform="matrix(1.00, 0.00, -0.00, -1.00, 126.6, 3.0)">n</text><text xml:space="preserve" font-family="EurekaSans-RegularSC" font-size="36.0" fill="#000000" transform="matrix(1.00, 0.00, -0.00, -1.00, 145.8, 3.0)"> </text><text xml:space="preserve" font-family="EurekaSans-RegularSC" font-size="36.0" fill="#000000" transform="matrix(1.00, 0.00, -0.00, -1.00, 154.5, 3.0)">r</text><text xml:space="preserve" font-family="EurekaSans-RegularSC" font-size="36.0" fill="#000000" transform="matrix(1.00, 0.00, -0.00, -1.00, 170.7, 3.0)">a</text><text xml:space="preserve" font-family="EurekaSans-RegularSC" font-size="36.0" fill="#000000" transform="matrix(1.00, 0.00, -0.00, -1.00, 186.6, 3.0)">n</text><text xml:space="preserve" font-family="EurekaSans-RegularSC" font-size="36.0" fill="#000000" transform="matrix(1.00, 0.00, -0.00, -1.00, 205.8, 3.0)">d</text><text xml:space="preserve" font-family="EurekaSans-RegularSC" font-size="36.0" fill="#000000" transform="matrix(1.00, 0.00, -0.00, -1.00, 223.8, 3.0)">o</text><text xml:space="preserve" font-family="EurekaSans-RegularSC" font-size="36.0" fill="#000000" transform="matrix(1.00, 0.00, -0.00, -1.00, 242.3, 3.0)">m</text><text xml:space="preserve" font-family="EurekaSans-RegularSC" font-size="36.0" fill="#000000" transform="matrix(1.00, 0.00, -0.00, -1.00, 265.6, 3.0)"> </text><text xml:space="preserve" font-family="EurekaSans-RegularSC" font-size="36.0" fill="#000000" transform="matrix(1.00, 0.00, -0.00, -1.00, 274.3, 3.0)">h</text><text xml:space="preserve" font-family="EurekaSans-RegularSC" font-size="36.0" fill="#000000" transform="matrix(1.00, 0.00, -0.00, -1.00, 293.5, 3.0)">o</text><text xml:space="preserve" font-family="EurekaSans-RegularSC" font-size="36.0" fill="#000000" transform="matrix(1.00, 0.00, -0.00, -1.00, 311.9, 3.0)">u</text><text xml:space="preserve" font-family="EurekaSans-RegularSC" font-size="36.0" fill="#000000" transform="matrix(1.00, 0.00, -0.00, -1.00, 330.5, 3.0)">s</text><text xml:space="preserve" font-family="EurekaSans-RegularSC" font-size="36.0" fill="#000000" transform="matrix(1.00, 0.00, -0.00, -1.00, 344.9, 3.0)">e</text></g></svg>